<?xml version="1.0" standalone="no"?>
<!DOCTYPE svg PUBLIC "-//W3C//DTD SVG 20010904//EN"
 "http://www.w3.org/TR/2001/REC-SVG-20010904/DTD/svg10.dtd">
<svg version="1.0" xmlns="http://www.w3.org/2000/svg"
 width="2400.000000pt" height="2400.000000pt" viewBox="0 0 2400.000000 2400.000000"
 preserveAspectRatio="xMidYMid meet">

<g transform="translate(0.000000,2400.000000) scale(0.100000,-0.100000)"
fill="#000000" stroke="none">
<path d="M5465 14125 c-77 -7 -167 -18 -200 -23 -93 -15 -283 -67 -354 -96
-36 -14 -68 -26 -73 -26 -12 0 -292 -140 -298 -149 -3 -5 -21 -16 -40 -26
-100 -51 -352 -266 -476 -405 -138 -156 -319 -453 -370 -608 -8 -26 -23 -65
-33 -87 -21 -48 -36 -100 -71 -245 -26 -106 -49 -330 -50 -470 0 -123 29 -355
60 -480 6 -25 15 -61 19 -80 5 -19 18 -62 30 -95 12 -33 30 -82 39 -110 25
-79 141 -301 211 -405 35 -52 67 -97 70 -100 4 -3 18 -21 31 -40 53 -78 274
-298 361 -360 18 -13 39 -28 44 -32 42 -34 106 -78 135 -93 19 -10 37 -21 40
-25 8 -13 261 -137 326 -160 329 -119 617 -160 927 -133 163 14 247 25 315 42
23 6 59 15 80 20 86 20 265 87 382 142 68 33 127 63 130 67 3 4 34 25 70 46
104 64 227 159 343 269 60 56 113 102 117 102 5 0 55 -45 112 -100 369 -359
827 -559 1361 -594 166 -11 423 8 550 40 20 5 56 14 80 20 229 58 470 163 662
288 22 14 42 28 45 31 3 3 21 17 40 30 70 49 131 102 238 205 46 44 87 80 92
80 4 0 58 -48 119 -107 62 -60 115 -108 119 -108 4 0 22 -14 41 -30 18 -17 37
-30 40 -30 3 0 18 -11 32 -24 14 -13 36 -29 49 -36 13 -7 29 -17 34 -22 62
-54 399 -212 531 -248 201 -55 325 -77 508 -89 177 -11 437 9 577 46 30 8 71
18 90 23 248 61 523 195 742 361 45 35 129 108 186 163 57 56 107 102 111 104
3 1 49 -40 101 -91 52 -51 115 -108 140 -127 25 -19 47 -37 50 -40 3 -3 21
-16 40 -30 19 -13 40 -28 45 -32 20 -17 87 -58 118 -74 17 -9 34 -20 37 -25 7
-10 253 -129 267 -129 5 0 38 -12 74 -26 61 -26 91 -35 169 -54 19 -4 62 -15
95 -23 276 -69 664 -65 955 10 52 13 111 28 130 32 19 4 45 13 58 20 12 7 49
20 80 30 58 19 322 147 332 161 3 4 19 15 37 23 65 34 271 197 359 286 51 50
94 91 97 91 3 0 41 -35 84 -77 43 -43 101 -96 128 -118 27 -22 61 -50 75 -62
14 -13 28 -23 31 -23 3 0 19 -11 35 -25 42 -37 226 -146 319 -190 144 -68 279
-114 480 -164 64 -15 191 -31 324 -40 122 -9 343 4 496 29 88 14 271 63 344
94 36 14 68 26 73 26 13 0 277 134 338 171 255 157 528 435 687 699 69 114
141 261 163 331 11 32 24 69 31 81 7 13 25 72 42 133 67 252 92 563 62 790
-22 168 -31 221 -45 270 -6 22 -15 56 -20 75 -20 79 -29 108 -54 175 -91 235
-231 473 -381 645 -70 81 -253 254 -305 290 -12 8 -30 22 -40 30 -10 8 -28 22
-40 30 -12 8 -28 20 -34 26 -7 6 -26 19 -44 28 -17 9 -48 28 -69 42 -81 55
-347 174 -458 204 -290 81 -532 106 -789 83 -166 -15 -249 -26 -313 -42 -24
-6 -60 -15 -80 -20 -50 -11 -216 -67 -262 -87 -272 -120 -481 -259 -675 -448
-54 -53 -101 -96 -103 -96 -2 0 -41 36 -86 79 -117 113 -161 154 -187 171 -12
8 -30 22 -40 30 -10 8 -28 22 -40 30 -12 8 -28 20 -34 26 -7 7 -32 22 -57 34
-24 13 -46 26 -49 30 -8 13 -261 137 -326 160 -249 89 -408 123 -651 139 -170
10 -429 -8 -558 -41 -22 -5 -58 -14 -80 -20 -114 -28 -333 -107 -430 -156 -60
-30 -112 -58 -115 -62 -3 -4 -20 -15 -39 -25 -87 -44 -262 -180 -389 -300
l-104 -99 -52 55 c-69 71 -160 154 -199 182 -17 12 -43 32 -57 45 -13 12 -28
22 -32 22 -3 0 -13 7 -22 15 -45 45 -341 204 -461 248 -107 39 -220 72 -325
96 -264 58 -646 56 -895 -6 -33 -8 -76 -19 -95 -23 -184 -45 -390 -133 -580
-250 -47 -29 -87 -55 -90 -59 -3 -3 -21 -17 -40 -31 -19 -13 -39 -27 -45 -32
-29 -21 -196 -172 -235 -212 -24 -25 -47 -46 -50 -46 -3 0 -50 44 -105 98 -55
53 -115 108 -133 122 -18 14 -41 32 -52 40 -10 8 -28 22 -40 30 -12 8 -28 20
-34 25 -13 11 -74 52 -126 83 -65 39 -244 128 -302 150 -103 39 -162 59 -208
72 -25 7 -56 16 -70 20 -14 4 -50 13 -80 19 -324 63 -643 58 -935 -16 -55 -14
-116 -28 -135 -32 -19 -4 -45 -13 -58 -20 -12 -7 -49 -20 -80 -31 -72 -22
-249 -111 -359 -178 -148 -91 -290 -205 -408 -330 -27 -29 -53 -52 -56 -52 -3
0 -46 39 -95 88 -50 48 -110 103 -134 122 -24 19 -48 40 -54 45 -7 6 -27 21
-46 35 -19 13 -39 28 -45 32 -20 17 -87 58 -118 74 -17 9 -34 20 -37 25 -8 12
-255 129 -272 129 -8 0 -18 3 -21 7 -13 12 -124 50 -217 73 -19 5 -53 14 -75
20 -59 16 -208 38 -305 45 -181 12 -209 13 -345 0z m189 -185 c-14 -13 -17
-13 -30 5 -13 18 -13 21 3 33 15 11 20 10 30 -5 11 -14 10 -20 -3 -33z m3196
26 c0 -22 -17 -37 -33 -30 -20 7 -23 40 -4 47 17 6 37 -3 37 -17z m3180 -6 c0
-10 -6 -20 -12 -23 -21 -7 -38 4 -38 23 0 10 6 20 13 23 20 7 37 -4 37 -23z
m3318 -4 c-2 -13 -10 -21 -23 -21 -23 0 -33 34 -14 45 20 13 40 -1 37 -24z
m-9958 9 c17 -20 5 -45 -20 -45 -11 0 -23 7 -26 15 -6 15 11 45 26 45 4 0 13
-7 20 -15z m135 -10 c0 -30 -39 -27 -43 3 -3 20 0 23 20 20 15 -2 23 -10 23
-23z m275 5 c0 -24 -26 -38 -42 -22 -16 16 -2 42 22 42 13 0 20 -7 20 -20z
m2777 -24 c-4 -9 -16 -16 -27 -16 -29 0 -38 30 -15 47 16 11 21 11 33 -1 8 -8
12 -22 9 -30z m131 22 c-2 -15 -10 -23 -23 -23 -13 0 -21 8 -23 23 -3 18 1 22
23 22 22 0 26 -4 23 -22z m275 10 c7 -21 -4 -38 -24 -38 -14 0 -19 7 -19 25 0
18 5 25 19 25 11 0 21 -6 24 -12z m2777 -29 c0 -14 -7 -19 -25 -19 -33 0 -44
27 -19 45 22 16 44 3 44 -26z m130 22 c0 -24 -13 -33 -34 -25 -27 10 -20 44 9
44 18 0 25 -5 25 -19z m275 -6 c0 -30 -39 -27 -43 3 -3 20 0 23 20 20 15 -2
23 -10 23 -23z m2913 2 c2 -9 -4 -20 -13 -23 -20 -8 -50 19 -40 36 10 17 49 8
53 -13z m137 3 c0 -23 -49 -20 -53 3 -3 15 2 18 25 15 17 -2 28 -9 28 -18z
m3045 0 c0 -27 -27 -37 -47 -17 -20 19 -9 37 23 37 17 0 24 -5 24 -20z m138 3
c-4 -20 -35 -30 -50 -15 -15 15 0 32 28 32 19 0 25 -5 22 -17z m138 6 c9 -16
-20 -41 -39 -33 -27 10 -21 44 7 44 14 0 28 -5 32 -11z m-12598 -27 c3 -18 -1
-22 -22 -22 -31 0 -42 16 -25 36 17 21 43 13 47 -14z m3180 2 c2 -12 -4 -24
-12 -27 -19 -7 -40 18 -32 39 8 22 40 13 44 -12z m3180 0 c2 -12 -4 -24 -12
-27 -19 -7 -40 18 -32 39 8 22 40 13 44 -12z m2640 -2 c3 -16 -2 -22 -17 -22
-24 0 -35 15 -27 36 9 23 40 13 44 -14z m546 19 c10 -16 -5 -41 -24 -41 -20 0
-30 17 -22 38 5 14 38 16 46 3z m2636 -16 c0 -18 -5 -25 -19 -25 -11 0 -23 5
-26 10 -11 18 3 40 25 40 15 0 20 -7 20 -25z m545 0 c0 -13 -8 -21 -22 -23
-17 -3 -23 2 -23 16 0 10 3 22 7 26 13 13 38 1 38 -19z m-12585 -24 c0 -15
-29 -33 -45 -27 -18 7 -20 43 -2 49 14 5 47 -10 47 -22z m3168 20 c21 -13 10
-46 -16 -49 -27 -4 -40 22 -22 43 14 17 20 18 38 6z m2372 -21 c0 -10 -6 -20
-12 -23 -21 -7 -38 4 -38 23 0 10 6 20 13 23 20 7 37 -4 37 -23z m6370 -7 c0
-22 -30 -27 -48 -9 -16 16 -16 18 2 31 21 16 46 4 46 -22z m-12730 8 c0 -23
-19 -32 -42 -19 -29 15 -22 38 12 38 23 0 30 -5 30 -19z m3180 0 c0 -24 -23
-33 -46 -17 -22 16 -10 36 22 36 17 0 24 -6 24 -19z m4000 -1 c0 -27 -27 -37
-47 -17 -20 19 -9 37 23 37 17 0 24 -5 24 -20z m2363 8 c6 -19 -3 -38 -18 -38
-17 0 -38 27 -30 40 9 14 42 13 48 -2z m817 -8 c0 -27 -27 -37 -47 -17 -20 19
-9 37 23 37 17 0 24 -5 24 -20z m3180 0 c0 -24 -26 -38 -42 -22 -16 16 -2 42
22 42 13 0 20 -7 20 -20z m-13678 -17 c7 -27 -1 -43 -22 -43 -22 0 -34 28 -19
46 16 19 36 17 41 -3z m3182 2 c8 -23 -4 -45 -25 -45 -13 0 -19 7 -19 23 0 37
32 53 44 22z m3181 -15 c0 -18 -6 -26 -22 -28 -18 -3 -23 1 -23 21 0 28 9 39
30 35 9 -2 15 -14 15 -28z m3185 15 c10 -12 10 -18 0 -30 -16 -19 -39 -19 -46
0 -6 15 11 45 26 45 4 0 13 -7 20 -15z m3180 -1 c11 -12 10 -18 -3 -32 -16
-15 -18 -15 -34 0 -13 14 -14 20 -3 32 7 9 16 16 20 16 4 0 13 -7 20 -16z
m-11645 -19 c0 -13 -8 -21 -22 -23 -17 -3 -23 2 -23 16 0 10 3 22 7 26 13 13
38 1 38 -19z m3183 13 c8 -8 9 -15 1 -25 -17 -20 -49 -16 -49 5 0 32 25 43 48
20z m3182 -3 c16 -19 4 -35 -26 -35 -17 0 -24 6 -24 18 0 34 28 43 50 17z
m3179 6 c19 -12 6 -41 -18 -41 -23 0 -35 15 -27 35 6 17 24 19 45 6z m3189
-19 c3 -18 -1 -22 -23 -22 -29 0 -45 27 -24 41 22 14 44 6 47 -19z m-13948
-17 c10 -12 10 -18 0 -30 -16 -19 -39 -19 -46 0 -6 15 11 45 26 45 4 0 13 -7
20 -15z m3180 0 c15 -18 6 -45 -13 -45 -8 0 -20 7 -27 15 -10 12 -10 18 0 30
16 19 24 19 40 0z m3178 3 c19 -19 15 -48 -7 -48 -28 0 -47 26 -31 45 15 18
22 19 38 3z m3190 -21 c3 -21 -1 -27 -15 -27 -29 0 -44 20 -32 42 15 27 43 18
47 -15z m3184 16 c7 -27 -1 -43 -22 -43 -24 0 -33 15 -25 40 8 25 41 26 47 3z
m-11398 1 c26 -10 20 -44 -8 -44 -28 0 -40 14 -32 35 6 16 16 18 40 9z m3194
-20 c4 -27 -20 -37 -44 -19 -16 11 -16 15 -5 29 19 22 45 16 49 -10z m3180 0
c2 -12 -4 -24 -12 -27 -19 -7 -40 18 -32 39 8 22 40 13 44 -12z m3180 0 c2
-12 -4 -24 -12 -27 -19 -7 -40 18 -32 39 8 22 40 13 44 -12z m3189 10 c3 -8
-2 -23 -11 -32 -16 -16 -18 -16 -31 1 -7 11 -11 25 -8 33 7 19 42 18 50 -2z
m-14201 -49 c8 -20 -13 -45 -32 -38 -8 3 -14 16 -14 29 0 17 6 24 20 24 11 0
23 -7 26 -15z m1596 -2 c7 -27 -1 -43 -22 -43 -20 0 -32 23 -24 45 8 21 41 19
46 -2z m1584 2 c4 -8 1 -22 -6 -30 -16 -19 -40 -2 -40 26 0 23 38 26 46 4z
m1598 0 c8 -23 -4 -45 -25 -45 -13 0 -19 7 -19 23 0 37 32 53 44 22z m1593 -1
c2 -7 -4 -19 -13 -29 -15 -15 -19 -15 -32 -1 -20 20 -8 48 20 44 12 -2 23 -8
25 -14z m1588 -14 c0 -18 -6 -26 -22 -28 -18 -3 -23 1 -23 21 0 28 9 39 30 35
9 -2 15 -14 15 -28z m1595 10 c0 -27 -34 -44 -50 -25 -18 21 -5 45 25 45 18 0
25 -5 25 -20z m1590 5 c10 -12 10 -18 0 -30 -25 -30 -61 -7 -46 30 3 8 12 15
19 15 8 0 20 -7 27 -15z m1590 -4 c0 -29 -22 -42 -44 -26 -25 18 -14 45 19 45
18 0 25 -5 25 -19z m1590 3 c11 -12 10 -18 -3 -32 -16 -15 -18 -15 -34 0 -13
14 -14 20 -3 32 7 9 16 16 20 16 4 0 13 -7 20 -16z m-14447 -58 c3 -8 -1 -22
-8 -33 -13 -17 -15 -17 -31 -1 -9 9 -14 24 -11 32 8 20 43 21 50 2z m1839 -3
c7 -27 -1 -43 -22 -43 -20 0 -36 33 -25 50 10 16 42 11 47 -7z m1342 0 c4 -9
0 -23 -9 -32 -13 -14 -17 -14 -30 0 -19 19 -10 49 15 49 10 0 21 -8 24 -17z
m1844 -11 c4 -29 -26 -42 -44 -18 -17 24 -6 48 20 44 13 -2 22 -12 24 -26z
m1339 12 c3 -8 -2 -23 -11 -32 -16 -16 -18 -16 -31 1 -7 11 -11 25 -8 33 7 19
42 18 50 -2z m1838 -14 c0 -38 -39 -35 -43 3 -3 25 0 28 20 25 17 -2 23 -9 23
-28z m1341 15 c8 -20 -13 -45 -32 -38 -8 3 -14 16 -14 29 0 17 6 24 20 24 11
0 23 -7 26 -15z m1844 0 c10 -12 10 -18 0 -30 -25 -30 -61 -7 -46 30 3 8 12
15 19 15 8 0 20 -7 27 -15z m1347 -1 c8 -21 -19 -46 -40 -38 -9 3 -17 17 -17
30 0 19 5 24 25 24 14 0 28 -7 32 -16z m1840 0 c3 -8 -2 -23 -11 -32 -15 -15
-17 -15 -32 0 -21 21 -11 48 16 48 11 0 23 -7 27 -16z m-14693 -59 c8 -22 -4
-45 -24 -45 -22 0 -34 28 -19 46 15 18 35 18 43 -1z m3181 -5 c8 -26 -1 -40
-26 -40 -13 0 -19 7 -19 23 0 40 34 53 45 17z m3185 5 c10 -12 10 -18 0 -30
-20 -24 -50 -19 -50 8 0 39 26 50 50 22z m3180 0 c18 -21 5 -45 -25 -45 -27 0
-35 26 -13 48 16 16 23 15 38 -3z m3180 0 c15 -18 6 -45 -13 -45 -8 0 -20 7
-27 15 -10 12 -10 18 0 30 16 19 24 19 40 0z m-10651 -9 c9 -11 8 -18 -5 -31
-15 -15 -19 -15 -32 -1 -17 17 -10 46 11 46 8 0 20 -6 26 -14z m3188 -2 c3 -8
-2 -23 -11 -32 -14 -15 -18 -15 -31 -1 -9 9 -13 23 -9 32 8 21 43 22 51 1z
m3181 -10 c4 -28 -28 -41 -45 -19 -16 23 -5 47 21 43 13 -2 22 -11 24 -24z
m3176 20 c21 -8 20 -31 -1 -42 -24 -12 -43 -4 -43 17 0 29 14 37 44 25z m3185
-3 c21 -13 5 -41 -24 -41 -18 0 -25 5 -25 18 0 31 21 41 49 23z m-14919 -76
c10 -12 10 -18 0 -30 -25 -30 -61 -7 -46 30 3 8 12 15 19 15 8 0 20 -7 27 -15z
m3180 0 c15 -18 6 -45 -13 -45 -20 0 -40 27 -33 45 7 19 30 19 46 0z m3180 0
c15 -18 6 -45 -13 -45 -8 0 -20 7 -27 15 -10 12 -10 18 0 30 16 19 24 19 40 0z
m3188 -13 c4 -26 -22 -40 -43 -22 -11 9 -12 17 -4 32 13 25 43 19 47 -10z
m3182 -2 c0 -22 -5 -30 -18 -30 -10 0 -23 5 -30 12 -16 16 3 48 28 48 16 0 20
-7 20 -30z m-10422 -8 c3 -18 -1 -22 -23 -22 -29 0 -45 27 -24 41 22 14 44 6
47 -19z m3180 0 c3 -18 -1 -22 -22 -22 -19 0 -26 5 -26 18 0 39 43 43 48 4z
m3180 0 c3 -16 -2 -22 -17 -22 -24 0 -35 15 -27 36 9 23 40 13 44 -14z m3185
16 c7 -21 -4 -38 -23 -38 -10 0 -20 6 -23 13 -7 20 4 37 23 37 10 0 20 -6 23
-12z m3182 -13 c0 -13 -8 -21 -22 -23 -19 -3 -23 1 -23 23 0 22 4 26 23 23 14
-2 22 -10 22 -23z m-11961 -60 c8 -22 -4 -45 -24 -45 -25 0 -31 21 -12 43 19
21 28 22 36 2z m3181 -5 c8 -26 -1 -40 -26 -40 -22 0 -26 29 -7 48 17 17 26
15 33 -8z m3184 -27 c-17 -19 -49 -16 -49 5 0 31 21 44 42 25 14 -12 15 -19 7
-30z m3181 32 c17 -20 5 -45 -20 -45 -11 0 -23 7 -26 15 -6 15 11 45 26 45 4
0 13 -7 20 -15z m-12730 -20 c0 -18 -5 -25 -19 -25 -11 0 -23 5 -26 10 -11 18
3 40 25 40 15 0 20 -7 20 -25z m2523 3 c6 -18 -3 -38 -17 -38 -18 0 -35 21
-29 36 6 17 40 18 46 2z m3182 -13 c0 -30 -39 -27 -43 3 -3 20 0 23 20 20 15
-2 23 -10 23 -23z m3183 3 c-2 -15 -10 -23 -23 -23 -13 0 -21 8 -23 23 -3 18
1 22 23 22 22 0 26 -4 23 -22z m3180 0 c-2 -15 -10 -23 -23 -23 -13 0 -21 8
-23 23 -3 18 1 22 23 22 22 0 26 -4 23 -22z m3189 6 c7 -18 -14 -35 -37 -31
-8 1 -16 12 -18 25 -3 18 1 22 23 22 14 0 28 -7 32 -16z m-2629 -88 c-2 -13
-10 -21 -23 -21 -23 0 -33 34 -14 45 20 13 40 -1 37 -24z m-12728 4 c0 -24
-26 -38 -42 -22 -16 16 -2 42 22 42 13 0 20 -7 20 -20z m3183 8 c7 -21 -4 -38
-23 -38 -23 0 -34 16 -26 35 7 18 43 20 49 3z m3181 -4 c8 -21 -1 -34 -25 -34
-14 0 -19 7 -19 25 0 29 34 36 44 9z m2726 1 c17 -20 5 -45 -20 -45 -11 0 -23
7 -26 15 -6 15 11 45 26 45 4 0 13 -7 20 -15z m455 -10 c0 -30 -39 -27 -43 3
-3 20 0 23 20 20 15 -2 23 -10 23 -23z m2725 10 c17 -20 5 -45 -20 -45 -11 0
-23 7 -26 15 -6 15 11 45 26 45 4 0 13 -7 20 -15z m3190 -26 c0 -24 -32 -25
-51 -3 -11 14 -10 18 6 30 22 16 45 2 45 -27z m-12736 22 c10 -16 -5 -41 -25
-41 -14 0 -19 7 -19 25 0 18 5 25 19 25 11 0 22 -4 25 -9z m3181 -16 c0 -13
-8 -21 -22 -23 -17 -3 -23 2 -23 16 0 10 3 22 7 26 13 13 38 1 38 -19z m-6002
-77 c7 -21 -4 -38 -23 -38 -10 0 -20 6 -23 13 -7 20 4 37 23 37 10 0 20 -6 23
-12z m2915 -15 c-3 -31 -32 -43 -41 -18 -9 23 3 45 25 45 15 0 19 -6 16 -27z
m267 2 c0 -13 -8 -21 -22 -23 -19 -3 -23 1 -23 23 0 22 4 26 23 23 14 -2 22
-10 22 -23z m2918 13 c7 -23 -5 -48 -23 -48 -20 0 -32 23 -24 45 7 18 41 20
47 3z m267 -7 c0 -26 -23 -44 -38 -29 -22 22 -14 48 13 48 18 0 25 -5 25 -19z
m2914 4 c8 -21 -3 -45 -20 -45 -8 0 -17 7 -20 15 -8 21 2 45 20 45 7 0 16 -7
20 -15z m266 -4 c0 -28 -24 -45 -40 -26 -16 20 -6 45 20 45 13 0 20 -7 20 -19z
m2915 9 c10 -16 -5 -50 -21 -50 -17 0 -28 24 -20 45 6 17 32 20 41 5z m272 -6
c3 -8 -1 -22 -9 -30 -12 -12 -17 -12 -33 -1 -23 17 -14 47 15 47 11 0 23 -7
27 -16z m2913 0 c11 -12 10 -18 -3 -32 -16 -15 -18 -15 -33 0 -19 18 -12 48 9
48 8 0 20 -7 27 -16z m-15733 -100 c3 -8 -2 -23 -11 -32 -15 -15 -17 -15 -33
0 -13 14 -14 20 -3 32 16 20 39 20 47 0z m15821 -22 c3 -16 -2 -22 -17 -22
-24 0 -35 15 -27 36 9 23 40 13 44 -14z m-15914 -78 c9 -3 16 -15 16 -25 0
-14 -7 -19 -25 -19 -29 0 -45 28 -24 41 17 11 14 10 33 3z m15996 -22 c0 -31
-21 -44 -42 -25 -14 12 -15 19 -7 30 17 19 49 16 49 -5z m-16057 -104 c7 -21
-4 -38 -23 -38 -23 0 -34 16 -26 35 7 18 43 20 49 3z m16133 -9 c9 -16 -21
-43 -40 -36 -9 4 -16 16 -16 27 0 15 7 20 24 20 14 0 28 -5 32 -11z m-8272
-96 c35 -69 91 -93 211 -93 122 0 178 25 205 91 8 18 20 29 33 29 18 0 19 -4
13 -55 -14 -119 -74 -217 -155 -251 -18 -8 -64 -14 -102 -14 -149 0 -221 74
-253 263 -4 20 -4 42 -1 47 11 18 34 10 49 -17z m-7926 -31 c3 -16 -2 -22 -17
-22 -24 0 -35 15 -27 36 9 23 40 13 44 -14z m16262 -2 c0 -27 -34 -44 -50 -25
-18 21 -5 45 25 45 18 0 25 -5 25 -20z m-16322 -114 c2 -10 -1 -23 -7 -29 -15
-15 -46 16 -37 38 8 21 40 15 44 -9z m16371 1 c15 -19 -9 -50 -32 -41 -17 6
-23 35 -10 47 10 11 30 8 42 -6z m-16412 -123 c3 -8 -2 -23 -11 -32 -15 -15
-17 -15 -32 0 -21 21 -11 48 16 48 11 0 23 -7 27 -16z m16447 0 c9 -3 16 -15
16 -25 0 -14 -7 -19 -25 -19 -29 0 -45 28 -24 41 17 11 14 10 33 3z m-11323
-134 c9 -25 26 -71 38 -102 12 -32 30 -82 40 -110 11 -29 88 -242 171 -473 83
-231 159 -439 167 -462 15 -40 18 -43 53 -43 35 0 58 -18 43 -34 -4 -3 -139
-6 -300 -6 -275 0 -294 1 -291 18 2 13 16 18 58 22 30 3 54 10 53 15 -1 6 -29
89 -61 185 l-60 175 -164 3 c-183 3 -176 5 -201 -68 -9 -25 -36 -103 -61 -174
-25 -71 -46 -131 -46 -133 0 -1 27 -3 59 -3 44 0 60 -4 65 -15 9 -23 -8 -26
-150 -23 -107 3 -129 6 -129 18 0 10 12 16 38 18 48 4 30 -36 228 507 10 28
31 86 47 130 37 98 144 391 183 500 16 44 31 86 34 93 3 9 27 12 87 10 l82 -3
17 -45z m3324 33 c115 -31 146 -34 176 -16 18 11 32 14 38 8 5 -6 11 -95 13
-200 3 -187 3 -190 -18 -193 -17 -2 -28 11 -59 70 -75 147 -154 238 -241 282
-144 72 -272 -16 -329 -224 -23 -83 -33 -516 -16 -631 27 -173 81 -278 165
-317 81 -38 169 -23 194 33 8 17 12 92 12 225 l0 199 -57 3 c-44 2 -58 7 -58
18 0 13 36 15 265 15 229 0 265 -2 265 -15 0 -9 -13 -17 -33 -20 l-33 -5 -2
-245 c-2 -224 -3 -245 -19 -248 -10 -2 -31 6 -47 17 -35 25 -62 26 -138 5 -32
-9 -76 -21 -98 -26 -66 -17 -303 -22 -365 -7 -239 56 -362 176 -421 410 -18
70 -20 103 -16 233 5 164 18 228 68 332 73 154 190 247 379 302 44 13 321 9
375 -5z m6574 -7 c16 -19 1 -59 -154 -401 -70 -154 -162 -359 -205 -455 -43
-96 -94 -210 -114 -253 -20 -43 -36 -83 -36 -89 0 -8 25 -9 80 -5 176 14 317
131 391 325 19 51 28 62 44 60 19 -3 20 -9 16 -159 -2 -86 -6 -183 -10 -215
l-6 -59 -462 -3 -463 -2 0 24 c0 21 14 56 97 236 14 30 42 93 63 140 21 47 52
117 70 155 18 39 49 108 70 155 21 47 52 117 70 155 18 39 50 110 71 158 22
49 48 107 59 130 28 56 26 67 -12 67 -60 0 -163 -21 -206 -43 -57 -28 -116
-95 -171 -193 -67 -120 -70 -124 -91 -124 -24 0 -24 -7 -9 215 9 132 15 173
27 183 25 19 865 17 881 -2z m-13171 -13 c-2 -14 -15 -19 -51 -21 -26 -2 -47
-7 -47 -12 0 -8 131 -316 186 -438 13 -29 24 -57 24 -62 0 -28 21 -2 53 68 70
153 197 434 197 438 0 2 -37 4 -82 6 -66 2 -83 6 -83 18 0 13 27 15 170 18 93
1 175 0 182 -2 7 -3 10 -12 7 -21 -5 -11 -21 -15 -63 -15 l-57 0 -57 -127
c-31 -71 -90 -203 -132 -295 l-75 -167 0 -296 0 -295 49 0 c33 0 51 -5 54 -14
3 -8 3 -17 0 -20 -8 -8 -568 -8 -576 0 -3 3 -3 12 0 20 3 9 21 14 54 14 l49 0
0 279 0 279 -71 148 c-40 82 -107 222 -150 312 l-78 162 -39 0 c-37 0 -61 18
-45 34 4 3 136 6 295 6 270 0 289 -1 286 -17z m9815 11 c16 -17 -8 -34 -49
-34 l-44 0 0 -590 0 -590 44 0 c41 0 65 -17 49 -34 -8 -8 -548 -8 -556 0 -16
17 8 34 49 34 l44 0 0 590 0 590 -44 0 c-41 0 -65 17 -49 34 8 8 548 8 556 0z
m-11703 -33 c0 -24 -23 -33 -46 -17 -22 16 -10 36 22 36 17 0 24 -6 24 -19z
m16530 4 c15 -18 6 -45 -13 -45 -8 0 -20 7 -27 15 -10 12 -10 18 0 30 16 19
24 19 40 0z m-16566 -124 c10 -16 -5 -41 -25 -41 -19 0 -27 29 -12 43 9 10 31
9 37 -2z m16599 -13 c7 -21 -4 -38 -23 -38 -10 0 -20 6 -23 13 -7 20 4 37 23
37 10 0 20 -6 23 -12z m-16618 -138 c0 -16 -6 -26 -18 -28 -19 -4 -32 20 -23
44 9 25 41 13 41 -16z m16633 -6 c4 -25 -22 -38 -37 -20 -15 18 -3 48 18 44 9
-2 17 -13 19 -24z m-16638 -123 c0 -30 -25 -45 -44 -25 -13 12 -14 19 -5 30
17 21 49 18 49 -5z m16651 -7 c11 -14 10 -18 -5 -29 -10 -8 -24 -11 -32 -8
-17 6 -18 40 -1 46 20 9 24 8 38 -9z m-16651 -134 c0 -27 -27 -37 -47 -17 -20
19 -9 37 23 37 17 0 24 -5 24 -20z m16650 5 c10 -12 10 -18 0 -30 -16 -19 -39
-19 -46 0 -6 15 11 45 26 45 4 0 13 -7 20 -15z m-16640 -140 c0 -17 -27 -38
-40 -30 -14 9 -13 42 3 48 18 6 37 -3 37 -18z m16628 -18 c3 -22 -1 -27 -18
-27 -23 0 -35 22 -26 46 10 25 41 12 44 -19z m-16615 -109 c7 -21 -4 -38 -23
-38 -10 0 -20 6 -23 13 -7 20 4 37 23 37 10 0 20 -6 23 -12z m16597 -18 c0
-23 -26 -38 -41 -23 -14 14 0 43 22 43 12 0 19 -7 19 -20z m-16563 -116 c3 -8
-2 -23 -11 -32 -15 -15 -17 -15 -32 0 -21 21 -11 48 16 48 11 0 23 -7 27 -16z
m16533 -10 c11 -12 11 -18 -2 -30 -18 -18 -48 -8 -48 15 0 33 28 42 50 15z
m-16490 -130 c0 -16 -30 -33 -47 -27 -7 3 -13 13 -13 23 0 10 6 20 13 23 20 6
47 -4 47 -19z m16450 1 c15 -18 6 -45 -13 -45 -8 0 -20 7 -27 15 -10 12 -10
18 0 30 16 19 24 19 40 0z m-16412 -133 c4 -26 -22 -40 -43 -22 -11 9 -12 17
-4 32 13 25 43 19 47 -10z m16362 3 c15 -18 6 -45 -15 -45 -18 0 -30 24 -21
45 7 19 20 19 36 0z m-16303 -139 c-4 -9 -16 -16 -27 -16 -29 0 -38 30 -15 47
16 11 21 11 33 -1 8 -8 12 -22 9 -30z m16260 8 c2 -7 -4 -19 -13 -29 -15 -15
-19 -15 -32 -1 -20 20 -8 48 20 44 12 -2 23 -8 25 -14z m-16199 -122 c3 -18
-1 -22 -22 -22 -31 0 -42 16 -25 36 17 21 43 13 47 -14z m16128 3 c8 -20 -13
-45 -32 -38 -8 3 -14 16 -14 29 0 17 6 24 20 24 11 0 23 -7 26 -15z m-16060
-102 c15 -21 1 -43 -27 -43 -22 0 -26 29 -7 48 16 16 18 15 34 -5z m15992 -25
c-2 -17 -10 -23 -28 -23 -18 0 -26 6 -28 23 -3 19 1 22 28 22 27 0 31 -3 28
-22z m-15910 -100 c-2 -15 -10 -23 -23 -23 -13 0 -21 8 -23 23 -3 18 1 22 23
22 22 0 26 -4 23 -22z m15822 7 c17 -20 5 -45 -20 -45 -11 0 -23 7 -26 15 -6
15 11 45 26 45 4 0 13 -7 20 -15z m-15740 -101 c11 -12 10 -18 -3 -32 -16 -15
-18 -15 -34 0 -13 14 -14 20 -3 32 7 9 16 16 20 16 4 0 13 -7 20 -16z m2928
-22 c-4 -22 -46 -28 -54 -8 -4 9 -1 23 6 31 16 19 53 1 48 -23z m262 13 c0
-30 -24 -43 -45 -25 -11 9 -12 16 -2 31 18 28 47 25 47 -6z m2920 -16 c0 -14
-7 -19 -25 -19 -33 0 -45 28 -20 46 22 16 45 2 45 -27z m260 11 c0 -23 -5 -30
-19 -30 -10 0 -21 7 -25 15 -8 23 4 45 25 45 14 0 19 -7 19 -30z m3184 15 c8
-23 -4 -45 -25 -45 -14 0 -19 7 -19 30 0 23 5 30 19 30 10 0 21 -7 25 -15z
m3180 0 c8 -21 -3 -45 -20 -45 -18 0 -28 24 -20 45 3 8 12 15 20 15 7 0 16 -7
20 -15z m-3446 -23 c3 -16 -2 -22 -17 -22 -24 0 -35 15 -27 36 9 23 40 13 44
-14z m3180 0 c3 -16 -2 -22 -17 -22 -24 0 -35 15 -27 36 9 23 40 13 44 -14z
m3185 16 c7 -21 -4 -38 -23 -38 -10 0 -20 6 -23 13 -7 20 4 37 23 37 10 0 20
-6 23 -12z m-15553 -94 c11 -12 10 -18 -3 -32 -16 -15 -18 -15 -33 0 -19 18
-12 48 9 48 8 0 20 -7 27 -16z m2730 -25 c0 -23 -32 -26 -49 -5 -9 11 -8 18 5
30 19 20 44 5 44 -25z m457 25 c3 -8 -2 -23 -11 -32 -15 -15 -17 -15 -33 0
-13 14 -14 20 -3 32 16 20 39 20 47 0z m2723 -25 c0 -12 -7 -19 -20 -19 -26 0
-36 25 -20 45 16 19 40 2 40 -26z m460 22 c0 -10 -7 -24 -16 -31 -12 -11 -18
-10 -31 3 -13 13 -14 19 -3 31 18 22 50 20 50 -3z m3180 -5 c0 -32 -18 -43
-37 -23 -20 20 -10 47 17 47 15 0 20 -7 20 -24z m2724 9 c8 -23 -4 -45 -25
-45 -22 0 -26 29 -7 48 16 16 25 15 32 -3z m456 -15 c0 -33 -19 -40 -40 -15
-16 20 -5 45 20 45 16 0 20 -7 20 -30z m2725 10 c8 -26 -1 -40 -26 -40 -22 0
-26 29 -7 48 17 17 26 15 33 -8z m-6365 -15 c0 -18 -5 -25 -19 -25 -11 0 -23
5 -26 10 -11 18 3 40 25 40 15 0 20 -7 20 -25z m-5800 -85 c0 -24 -24 -32 -47
-14 -17 14 -17 14 0 28 23 18 47 10 47 -14z m3164 24 c19 -7 21 -40 4 -47 -29
-10 -53 25 -31 46 8 8 8 8 27 1z m3194 -20 c4 -25 -22 -38 -37 -20 -15 18 -3
48 18 44 9 -2 17 -13 19 -24z m3186 -17 c-8 -23 -31 -21 -44 2 -8 16 -6 22 7
30 23 13 47 -8 37 -32z m-12724 14 c0 -23 -19 -32 -42 -19 -29 15 -22 38 12
38 23 0 30 -5 30 -19z m2520 1 c0 -31 -21 -44 -42 -25 -14 12 -15 19 -7 30 17
19 49 16 49 -5z m3180 0 c0 -31 -21 -44 -42 -25 -14 12 -15 19 -7 30 17 19 49
16 49 -5z m3183 6 c7 -21 -4 -38 -23 -38 -23 0 -32 13 -24 34 7 19 40 21 47 4z
m3184 -4 c3 -8 -1 -22 -9 -30 -13 -14 -17 -14 -31 1 -9 8 -14 22 -11 30 8 20
43 19 51 -1z m3181 -8 c2 -10 0 -22 -5 -27 -16 -16 -43 2 -43 28 0 20 4 24 22
21 13 -2 24 -11 26 -22z m-15148 -75 c0 -28 -24 -45 -40 -26 -16 20 -6 45 20
45 13 0 20 -7 20 -19z m2305 -11 c0 -38 -39 -35 -43 3 -3 25 0 28 20 25 17 -2
23 -9 23 -28z m879 15 c3 -8 -2 -22 -11 -30 -14 -14 -18 -14 -30 -2 -7 7 -11
21 -7 30 8 21 40 22 48 2z m2306 -1 c11 -12 11 -18 -2 -30 -18 -18 -48 -8 -48
15 0 33 28 42 50 15z m874 0 c8 -21 -1 -34 -25 -34 -14 0 -19 7 -19 25 0 29
34 36 44 9z m2306 0 c11 -12 10 -18 -3 -32 -16 -15 -18 -15 -33 0 -19 18 -12
48 9 48 8 0 20 -7 27 -16z m876 1 c4 -8 1 -22 -6 -30 -16 -19 -40 -2 -40 26 0
23 38 26 46 4z m2312 -13 c4 -28 -24 -40 -45 -19 -14 13 -14 19 -3 32 18 22
44 15 48 -13z m868 13 c4 -8 1 -22 -6 -30 -16 -19 -40 -2 -40 26 0 23 38 26
46 4z m2314 -10 c0 -31 -26 -43 -47 -22 -13 13 -14 19 -3 31 21 26 50 20 50
-9z m-8560 -76 c0 -27 -28 -35 -48 -15 -16 16 -16 18 1 31 24 17 47 9 47 -16z
m3179 13 c12 -23 -1 -45 -25 -40 -23 4 -31 37 -12 49 19 13 26 11 37 -9z
m3180 4 c13 -16 4 -46 -14 -46 -19 0 -36 25 -29 44 8 20 28 21 43 2z m-12721
-18 c-2 -17 -10 -23 -28 -23 -18 0 -26 6 -28 23 -3 19 1 22 28 22 27 0 31 -3
28 -22z m2077 -3 c0 -22 -31 -33 -47 -17 -17 17 -1 44 24 40 15 -2 23 -10 23
-23z m1105 5 c0 -25 -25 -36 -45 -20 -25 21 -18 40 15 40 23 0 30 -4 30 -20z
m2077 4 c3 -8 -1 -22 -9 -30 -13 -13 -17 -12 -32 5 -10 11 -15 25 -11 30 10
17 45 13 52 -5z m3183 -3 c0 -32 -24 -44 -44 -22 -22 24 -13 41 20 41 17 0 24
-6 24 -19z m3184 4 c3 -8 -2 -22 -11 -30 -14 -15 -18 -15 -31 -1 -8 8 -12 22
-9 30 8 20 43 21 51 1z m3180 -1 c8 -21 -1 -34 -24 -34 -10 0 -21 4 -24 9 -10
16 5 41 24 41 10 0 21 -7 24 -16z m-14694 -60 c11 -12 10 -18 -3 -32 -16 -15
-18 -15 -33 0 -19 18 -12 48 9 48 8 0 20 -7 27 -16z m1847 -28 c-4 -9 -16 -16
-27 -16 -29 0 -38 30 -15 47 16 11 21 11 33 -1 8 -8 12 -22 9 -30z m1341 16
c4 -28 -24 -40 -45 -19 -21 21 -9 49 19 45 15 -2 24 -11 26 -26z m1842 -9 c0
-22 -30 -27 -48 -9 -16 16 -16 18 2 31 21 16 46 4 46 -22z m1338 9 c4 -28 -24
-40 -45 -19 -14 13 -14 19 -3 32 18 22 44 15 48 -13z m1842 -13 c0 -23 -32
-26 -49 -5 -9 11 -8 18 5 30 19 20 44 5 44 -25z m1340 16 c0 -33 -28 -45 -46
-20 -16 22 -2 45 27 45 14 0 19 -7 19 -25z m1838 8 c13 -25 4 -43 -19 -43 -25
0 -35 25 -19 45 16 20 27 19 38 -2z m1342 -13 c0 -23 -5 -30 -19 -30 -20 0
-37 32 -26 50 3 5 15 10 26 10 14 0 19 -7 19 -30z m1844 15 c8 -22 -4 -45 -24
-45 -22 0 -34 28 -19 46 15 18 35 18 43 -1z m-14446 -73 c4 -28 -24 -40 -45
-19 -14 13 -14 19 -3 32 18 22 44 15 48 -13z m1600 -10 c-2 -10 -15 -18 -31
-20 -21 -3 -27 1 -27 15 0 11 5 24 12 31 15 15 50 -4 46 -26z m1582 13 c0 -31
-26 -43 -47 -22 -13 13 -14 19 -3 31 21 26 50 20 50 -9z m1597 -19 c-4 -9 -16
-16 -27 -16 -29 0 -38 30 -15 47 16 11 21 11 33 -1 8 -8 12 -22 9 -30z m1581
17 c-4 -34 -33 -43 -43 -14 -8 27 1 41 26 41 16 0 20 -6 17 -27z m1599 -17
c-8 -21 -43 -20 -51 1 -10 26 23 48 42 29 8 -8 12 -22 9 -30z m1583 14 c0 -32
-19 -40 -39 -16 -15 18 -3 46 20 46 14 0 19 -7 19 -30z m1600 -11 c0 -22 -29
-26 -48 -7 -9 9 -8 16 5 30 19 21 43 8 43 -23z m1584 26 c8 -22 -4 -46 -23
-43 -9 2 -17 15 -19 31 -3 21 1 27 16 27 11 0 22 -7 26 -15z m1594 -23 c3 -16
-2 -22 -17 -22 -24 0 -35 15 -27 36 9 23 40 13 44 -14z m-14203 -43 c0 -17 -6
-24 -20 -24 -23 0 -33 34 -13 46 20 13 33 5 33 -22z m3184 17 c17 -20 2 -48
-23 -44 -24 3 -34 37 -14 49 18 12 24 11 37 -5z m3188 -30 c-4 -9 -16 -16 -27
-16 -15 0 -20 7 -20 24 0 13 6 26 13 29 18 7 41 -19 34 -37z m3193 15 c0 -15
-29 -33 -45 -27 -18 7 -20 43 -2 49 14 5 47 -10 47 -22z m3180 4 c0 -19 -28
-38 -45 -31 -18 7 -20 43 -2 49 19 6 47 -4 47 -18z m-11394 0 c8 -20 -13 -45
-32 -38 -8 3 -14 16 -14 29 0 17 6 24 20 24 11 0 23 -7 26 -15z m3180 0 c4 -8
1 -22 -6 -30 -16 -19 -40 -2 -40 26 0 23 38 26 46 4z m3191 -1 c2 -7 -4 -19
-13 -29 -15 -15 -19 -15 -32 -1 -20 20 -8 48 20 44 12 -2 23 -8 25 -14z m3180
0 c4 -11 -1 -22 -12 -31 -16 -11 -21 -11 -33 1 -8 8 -12 22 -9 30 8 21 46 21
54 0z m3183 -3 c0 -29 -22 -42 -44 -26 -25 18 -14 45 19 45 18 0 25 -5 25 -19z
m-13943 -37 c4 -11 -1 -22 -12 -31 -16 -11 -21 -11 -33 1 -8 8 -12 22 -9 30 8
21 46 21 54 0z m1080 0 c3 -8 -2 -23 -11 -32 -15 -15 -17 -15 -32 0 -21 21
-11 48 16 48 11 0 23 -7 27 -16z m2103 -4 c0 -27 -34 -44 -50 -25 -18 21 -5
45 25 45 18 0 25 -5 25 -20z m1080 2 c0 -31 -21 -44 -42 -25 -14 12 -15 19 -7
30 17 19 49 16 49 -5z m2100 -1 c0 -32 -24 -44 -44 -22 -22 24 -13 41 20 41
17 0 24 -6 24 -19z m1080 0 c0 -28 -24 -45 -40 -26 -16 20 -6 45 20 45 13 0
20 -7 20 -19z m2100 1 c0 -31 -21 -44 -42 -25 -14 12 -15 19 -7 30 17 19 49
16 49 -5z m1083 4 c3 -8 -1 -22 -8 -33 -13 -16 -15 -17 -30 -2 -9 9 -13 23 -9
32 8 21 40 22 47 3z m2101 -1 c3 -8 -2 -22 -11 -30 -14 -14 -18 -14 -30 -2 -7
7 -11 21 -7 30 8 21 40 22 48 2z m1080 -1 c8 -21 -1 -34 -25 -34 -14 0 -19 7
-19 25 0 29 34 36 44 9z m-7317 -59 c-35 -26 -66 12 -35 43 10 10 17 8 33 -8
19 -20 19 -22 2 -35z m-6360 29 c2 -7 -4 -19 -13 -29 -17 -16 -18 -16 -30 0
-7 9 -10 23 -7 32 6 16 44 14 50 -3z m817 1 c3 -8 -2 -22 -11 -30 -14 -15 -18
-15 -31 -1 -8 8 -12 22 -9 30 8 20 43 21 51 1z m2361 -10 c0 -23 -34 -33 -45
-14 -13 20 1 40 24 37 13 -2 21 -10 21 -23z m822 9 c3 -8 -1 -22 -9 -30 -13
-14 -17 -14 -31 1 -9 8 -14 22 -11 30 8 20 43 19 51 -1z m3181 -8 c2 -10 -2
-22 -9 -26 -20 -13 -39 0 -39 27 0 20 4 24 22 21 13 -2 24 -11 26 -22z m2356
18 c20 -8 21 -28 2 -43 -18 -15 -46 -4 -46 18 0 29 14 37 44 25z m820 0 c21
-8 20 -31 -1 -42 -24 -12 -43 -4 -43 17 0 29 14 37 44 25z m2360 0 c26 -10 20
-44 -8 -44 -28 0 -40 14 -32 35 6 16 16 18 40 9z m825 -3 c21 -13 5 -41 -24
-41 -18 0 -25 5 -25 18 0 31 21 41 49 23z m-12859 -48 c0 -21 -29 -28 -46 -11
-14 13 -14 17 1 32 13 13 20 14 31 5 8 -6 14 -18 14 -26z m2633 -9 c-7 -18
-39 -18 -47 1 -3 8 2 22 11 31 15 15 18 15 29 -1 7 -9 10 -23 7 -31z m545 12
c-2 -13 -10 -21 -23 -21 -23 0 -33 34 -14 45 20 13 40 -1 37 -24z m2640 0 c-2
-13 -12 -22 -25 -24 -19 -3 -23 1 -23 21 0 14 6 27 13 30 22 7 38 -5 35 -27z
m540 0 c-2 -13 -10 -21 -23 -21 -23 0 -33 34 -14 45 20 13 40 -1 37 -24z
m2640 0 c-2 -13 -10 -21 -23 -21 -23 0 -33 34 -14 45 20 13 40 -1 37 -24z
m-9548 4 c0 -24 -26 -38 -42 -22 -16 16 -2 42 22 42 13 0 20 -7 20 -20z
m10098 -2 c-2 -17 -10 -23 -28 -23 -18 0 -26 6 -28 23 -3 19 1 22 28 22 27 0
31 -3 28 -22z m2638 11 c9 -16 -20 -41 -39 -33 -27 10 -21 44 7 44 14 0 28 -5
32 -11z m544 -9 c0 -27 -27 -37 -47 -17 -20 19 -9 37 23 37 17 0 24 -5 24 -20z
m-13156 4 c26 -10 20 -44 -8 -44 -30 0 -42 16 -26 35 14 17 13 17 34 9z m286
-9 c16 -19 4 -35 -26 -35 -17 0 -24 6 -24 18 0 34 28 43 50 17z m2908 -13 c3
-16 -2 -22 -17 -22 -24 0 -35 15 -27 36 9 23 40 13 44 -14z m271 19 c19 -12 6
-41 -19 -41 -25 0 -38 29 -19 41 8 5 16 9 19 9 3 0 11 -4 19 -9z m2909 -19 c3
-16 -2 -22 -17 -22 -24 0 -35 15 -27 36 9 23 40 13 44 -14z m266 22 c9 -3 16
-15 16 -25 0 -14 -7 -19 -25 -19 -29 0 -45 28 -24 41 17 11 14 10 33 3z m2914
-22 c3 -16 -2 -22 -16 -22 -22 0 -32 17 -24 38 7 20 37 9 40 -16z m280 0 c3
-18 -1 -22 -22 -22 -19 0 -26 5 -26 18 0 39 43 43 48 4z m2907 3 c0 -13 -8
-21 -22 -23 -17 -3 -23 2 -23 16 0 10 3 22 7 26 13 13 38 1 38 -19z m273 -3
c3 -16 -2 -22 -17 -22 -24 0 -35 15 -27 36 9 23 40 13 44 -14z m-12862 7 c3
-6 -1 -18 -10 -27 -15 -15 -17 -15 -32 0 -19 19 -11 38 16 38 10 0 22 -5 26
-11z m3182 -10 c2 -9 -4 -19 -12 -22 -19 -8 -51 17 -42 32 11 17 50 9 54 -10z
m3182 1 c0 -24 -26 -38 -42 -22 -16 16 -2 42 22 42 13 0 20 -7 20 -20z m3180
0 c0 -24 -26 -38 -42 -22 -16 16 -2 42 22 42 13 0 20 -7 20 -20z m3183 8 c7
-21 -4 -38 -23 -38 -19 0 -34 25 -24 41 8 13 42 11 47 -3z"/>
<path d="M8655 12133 c-6 -16 -29 -81 -123 -345 -11 -31 -17 -59 -14 -62 8 -9
292 -7 292 2 0 17 -135 422 -141 422 -4 0 -10 -8 -14 -17z"/>
</g>
</svg>
